<?xml version="1.0" encoding="UTF-8"?>
<svg id="Layer_4" data-name="Layer 4" xmlns="http://www.w3.org/2000/svg" viewBox="0 0 50 50">
  <defs>
    <style>
      .cls-1 {
        fill: #FFFFFF;
      }

      .cls-2 {
        fill: #FFFFFF;
      }

      .cls-3 {
        fill: #FFFFFF;
      }
    </style>
  </defs>
  <path class="cls-2" d="M30.28,12.47l-2.21,2.21c2.21,.36,4.21,.6,6.19,.9-.04,3.6-5.03,13.01-9.29,16.86-2.65-2.38-4.46-5.39-6.29-8.37l-1.78,1.78c2.19,4.02,5.36,7.98,8.18,10.23,4.55-4.5,8.85-10.03,11.89-19.46q1.2,.28,2.16,.64c-2.55,8.7-7.43,15.87-14.16,21.97-3.94-3.43-7.01-7.32-9.81-11.64l-1.78,1.78c3.2,5.09,6.96,9.49,11.62,13.25,8.47-7.39,14.71-16.03,17.1-27.24-3.92-1.54-7.81-2.52-11.83-2.91Z"/>
  <path class="cls-2" d="M43.25,10.52V5.67c-1.68-.52-3.45-1.16-4.72-1.45l-2.04,2.04c1.6,.48,2.81,.78,4.27,1.23,0,.5,.01,.9,0,1.29-.01,.25-.07,.51-.13,.85-2.08-.5-4.07-.98-6.06-1.45l-2.18,2.18c4.37,.85,8.6,1.67,12.38,3.81-2.51,14.31-12.02,25.73-20.01,31.32-5.07-4.09-9.43-8.81-13.09-14.41l-1.81,1.81c3.95,6.23,9.28,11.19,14.98,16.01,3.43-2.53,6.57-5.34,10.6-9.96,5.28-6.04,8.94-12.93,11.01-20.66,.48-1.8,.71-3.66,1.07-5.53-1.54-.8-2.9-1.51-4.28-2.23Z"/>
  <path class="cls-1" d="M17.45,21.65c-.72-1.99-1.39-3.84-2.17-5.97,3.22-.58,6.56-1.29,9.38-1.25l2.28-2.28c-4.22-.33-8.17,.16-12.13,1.11-.18-.75-.35-1.45-.52-2.15,5.22-1.42,11.22-1.83,14.84-1.14l2.33-2.33c-3.37-.58-6.92-.58-10.27-.27-3.29,.3-6.56,.73-9.62,1.81,.48,5.08,1.96,10.06,4.04,14.31l1.84-1.84Z"/>
  <path class="cls-3" d="M8.56,30.55l1.81-1.81c-2.47-4.64-4.3-9.39-5.06-14.6,.66-.32,1.24-.61,1.92-.94,1.13,4.81,2.45,9.43,4.89,13.79l1.82-1.82c-2.78-5.64-4.46-11.49-4.68-17.78,4.15-1.19,8.14-1.91,12.23-2.38,4.18-.48,8.18,.09,12,.6l2.09-2.09C25.42,1.35,16.03,2.26,6.47,5.78c.14,1.62,.27,3.19,.39,4.69-1.6,.82-3.02,1.55-4.4,2.27,1,6.33,2.74,12.28,6.09,17.81Z"/>
  <polygon class="cls-2" points="25.06 16.93 26.26 20.26 29.8 20.37 27.01 22.54 27.99 25.95 25.06 23.96 22.13 25.95 23.12 22.54 20.32 20.37 23.86 20.26 25.06 16.93"/>
</svg>